# xmcd
#
# Track frame offsets: 
#        150
#        13665
#        31278
#        52928
#        80202
#        96510
#        108560
#        119793
#        134588
#        151749
#        168797
#        186848
#        207888
#
# Disc length: 2962 seconds
#
# Revision: 0
# Processed by: cddbd v1.5.2PL0 Copyright (c) Steve Scherf et al.
# Submitted via: ExactAudioCopyFreeDBPlugin 1.0
#
DISCID=b20b900d
DTITLE=Barrelhouse Chuck and Kim Wilson's Blues All Stars - Driftin' Fro
DTITLE=m Town To Town
DYEAR=2013
DGENRE=Blues
TTITLE0=The Big Push
TTITLE1=Driftin' From Town To Town
TTITLE2=I'm Leaving You
TTITLE3=Stockyard Blues
TTITLE4=Lucky Lou
TTITLE5=Thirty Days
TTITLE6=Flat Foot Sam
TTITLE7=K&C Boogie
TTITLE8=You Can't Live Long
TTITLE9=She's Got A Thing Going On
TTITLE10=Three Hundred Pounds Of Joy
TTITLE11=Anna Lee
TTITLE12=Time Is Tight
EXTD=
EXTT0=
EXTT1=
EXTT2=
EXTT3=
EXTT4=
EXTT5=
EXTT6=
EXTT7=
EXTT8=
EXTT9=
EXTT10=
EXTT11=
EXTT12=
PLAYORDER=
